<svg xmlns="http://www.w3.org/2000/svg" id="Layer_1" data-name="Layer 1" viewBox="0 0 1722.16 537.64"><defs><style>.cls-1{fill:#1299ad;}.cls-2{fill:#e5d723;}</style></defs><title>Brand</title><path class="cls-1" d="M565.08,244.42V166.79q0-32.65,17.49-52.53t45.49-19.88a57.73,57.73,0,0,1,23.72,4.93,58.48,58.48,0,0,1,19.67,14.37,63.72,63.72,0,0,1,19.88-14.3,53.68,53.68,0,0,1,22.34-5q29.31,0,47,19.66t17.7,52.75v77.63H732.68V159.68q0-9-5.37-14.88a17.65,17.65,0,0,0-13.64-5.87,18.09,18.09,0,0,0-13.78,5.87q-5.52,5.88-5.52,14.88v84.74H649V159.68q0-9-5.51-14.88a18.28,18.28,0,0,0-13.93-5.87,17.66,17.66,0,0,0-13.64,5.87q-5.37,5.88-5.37,14.88v84.74Z"></path><path class="cls-1" d="M899.42,244.42V174q0-16.24-7.11-24.52t-21.19-8.27q-11.61,0-18.87,8.05T845,170.41q0,13.5,7.62,21.48t20.82,8a37.15,37.15,0,0,0,7.4-.87,111.85,111.85,0,0,0,11-3.05v48.18q-5.65,1.16-10.74,1.74a82.77,82.77,0,0,1-9.43.58q-32.22,0-53.11-21.47t-20.9-54.57q0-33.07,20.9-54.56T871.7,94.38a73.57,73.57,0,0,1,40.2,11.39,70.78,70.78,0,0,1,27,31.12,65.19,65.19,0,0,1,5,16.76q1.53,9.22,1.53,29.24v61.53Z"></path><path class="cls-1" d="M971,244.42V97.28h42.51v22.06a42.36,42.36,0,0,1,18-16.76q11-5.31,28.15-5.3h5.51v44.55h-2q-25.11,0-36.2,11.1t-11.1,36.2v55.29Z"></path><path class="cls-1" d="M1076.31,57.52a25.76,25.76,0,0,1,7.9-19,27.15,27.15,0,0,1,38.17,0,25.77,25.77,0,0,1,7.91,19,27,27,0,1,1-54,0Zm3.48,186.9V97.28h47V244.42Z"></path><path class="cls-1" d="M565.08,390.9h61.1c3.08,0,5.4-.5,6.94-1.51a5.23,5.23,0,0,0,2.31-4.71,6.19,6.19,0,0,0-1.27-3.67A9,9,0,0,0,631,378.3l-23.62-9.89Q587.25,360,577.52,348a43.35,43.35,0,0,1-9.73-28.23q0-20.91,15.16-32.87t41.95-12h55.2v43.55H625.54a8.81,8.81,0,0,0-5.58,1.75,5.46,5.46,0,0,0-2.24,4.47,7.18,7.18,0,0,0,4.31,6.06l22.49,9.58q23.29,9.72,33.75,21.61t10.44,28.64a43.87,43.87,0,0,1-5.18,21.21,45.91,45.91,0,0,1-14.76,16.12,52.28,52.28,0,0,1-17,6.7q-9.64,2.07-33.1,2.07h-53.6Z"></path><path class="cls-1" d="M875.52,376.55q-12.76,30.15-35.73,46.58t-52.17,16.43a79,79,0,0,1-31-6.3,79.81,79.81,0,0,1-26.4-18.11,82.84,82.84,0,0,1-18.1-27.28,87.48,87.48,0,0,1,0-64.44,82.84,82.84,0,0,1,18.1-27.28,80.52,80.52,0,0,1,26.24-17.87,79.45,79.45,0,0,1,31.19-6.22,78.19,78.19,0,0,1,44.19,13q19.62,13,32.23,37.89l-78.33,53.28-19.62-29.67L808.52,317a33.75,33.75,0,0,0-8.61-4.06,31.54,31.54,0,0,0-9.26-1.36q-15,0-25.52,11.41T754.6,351q0,16.92,10.37,28.4t25.36,11.48a44.48,44.48,0,0,0,26.09-8.45q12-8.46,20.5-24.57Z"></path><path class="cls-1" d="M892,436.69V351.34q0-35.89,19.23-57.75t50-21.85a63.56,63.56,0,0,1,26.08,5.42A64.34,64.34,0,0,1,1008.89,293a70.1,70.1,0,0,1,21.85-15.71,58.92,58.92,0,0,1,24.57-5.5q32.22,0,51.69,21.61t19.46,58v85.35h-50.25V343.53q0-9.9-5.9-16.36a19.47,19.47,0,0,0-15-6.46,19.93,19.93,0,0,0-15.15,6.46q-6.08,6.46-6.07,16.36v93.16H984.16V343.53q0-9.9-6.06-16.36a20.13,20.13,0,0,0-15.32-6.46,19.43,19.43,0,0,0-15,6.46q-5.91,6.46-5.9,16.36v93.16Z"></path><path class="cls-1" d="M1203.51,208.25V350.7q0,17.71,8.22,27.68t22.89,10q12.12,0,20.42-9.89t8.3-23.77q0-15.94-8.3-25t-23-9a40.68,40.68,0,0,0-8.14,1c-3.08.64-7.13,1.76-12.12,3.35v-53q6.21-1.28,11.8-2a81.41,81.41,0,0,1,10.37-.72q35.58,0,58.47,24T1315.34,355q0,35.75-23.37,60.14t-58,24.41a77.8,77.8,0,0,1-43.23-13.08,85.24,85.24,0,0,1-30.63-34.62,87.19,87.19,0,0,1-5.26-19.22q-1.6-10.12-1.6-28.8V208.25Z"></path><path class="cls-1" d="M1386.81,274.93v90.13q0,11.32,6.62,18.43a22.2,22.2,0,0,0,17,7.1q10.36,0,16.91-7.1t6.54-18.43V274.93h50.73v82q0,37.8-20.34,60.22t-53.84,22.41A73.19,73.19,0,0,1,1350,408.93a68.45,68.45,0,0,1-10.45-22.17q-3.27-12.12-3.27-29.83v-82Z"></path><path class="cls-1" d="M1513,436.69V208.25h50.73v77.21a52.17,52.17,0,0,1,17.07-10.29,57.18,57.18,0,0,1,19.78-3.43q27.75,0,44.27,21.37t16.51,58.23v85.35h-50.57V346.56q0-11.32-6.62-18.43a23.69,23.69,0,0,0-33.82,0q-6.63,7.1-6.62,18.43v90.13Z"></path><path class="cls-2" d="M486.6,213.57q0-.37,0-.75c0-.18,0-.36,0-.55s-.06-.48-.1-.73l-.09-.54c0-.23-.11-.44-.17-.66s-.1-.39-.16-.58-.14-.38-.21-.57a6.37,6.37,0,0,0-.23-.61c-.07-.18-.16-.34-.24-.51s-.19-.42-.3-.62-.19-.31-.28-.46-.24-.4-.37-.6l-.34-.45c-.13-.18-.26-.36-.4-.53s-.27-.3-.41-.46l-.42-.45-.49-.45-.42-.38-.56-.41-.44-.33-.59-.36-.48-.28-.59-.29-.55-.26-.56-.2-.64-.23-.54-.14c-.23-.06-.47-.13-.71-.17s-.37-.06-.55-.09-.49-.08-.74-.1l-.12,0c-6.29-.55-12.56-.82-18.66-.82a213.77,213.77,0,0,0-41.24,4V117.37a74.56,74.56,0,0,0-74.48-74.48H216a74.57,74.57,0,0,0-74.49,74.48v88.26A212.49,212.49,0,0,0,92.67,200c-6.1,0-12.38.27-18.67.82h-.09l-.76.11-.52.08c-.25,0-.5.12-.74.18l-.51.13-.64.23c-.19.06-.38.12-.57.2l-.52.24c-.2.1-.42.19-.62.3l-.41.25c-.22.13-.45.25-.66.4l-.36.26c-.21.15-.43.31-.63.47s-.24.21-.36.32-.38.33-.56.51-.25.27-.38.41-.31.32-.45.49-.27.35-.4.53l-.34.45c-.14.2-.26.41-.39.62s-.18.29-.26.44-.22.43-.32.64-.16.31-.23.48-.15.4-.23.6-.15.38-.21.58-.1.35-.15.53-.13.46-.18.7,0,.31-.08.47-.09.53-.12.81,0,.31,0,.47-.05.55-.05.82v.07A209.74,209.74,0,0,0,89.18,317a206.29,206.29,0,0,0,74.1,76.29l.88.88a12.81,12.81,0,0,0,2.42,1.91c18.26,11.08,38.71,18.88,64.36,24.55a13.38,13.38,0,0,0,2.79.3,12.9,12.9,0,0,0,2.77-25.49c-22.17-4.9-39.77-11.47-55.23-20.63l-.91-.92a13.06,13.06,0,0,0-2.61-2c-52.14-30.46-85.62-85.64-89.38-146,1.45,0,2.88-.06,4.3-.06a186.33,186.33,0,0,1,57.76,9.12h0l.12,0,0,0a185.43,185.43,0,0,1,50.46,25.57h0a188,188,0,0,1,58,67.63h0c1.29,2.55,2.49,5.05,3.56,7.43h0a184.92,184.92,0,0,1,16.39,75.86c0,.18,0,.37,0,.55v.18a185,185,0,0,1-16.41,76.59,12.9,12.9,0,1,0,23.51,10.61A210,210,0,0,0,304.6,422.9a212.18,212.18,0,0,0,182-209.21A.49.49,0,0,0,486.6,213.57ZM167.32,165.41l218.06-61.27a13.13,13.13,0,0,0,1.73-.64,48.51,48.51,0,0,1,2,13.87v54.49H167.32ZM216,68.68H340.45a48.48,48.48,0,0,1,32.22,12.23l-205.35,57.7V117.37A48.74,48.74,0,0,1,216,68.68Zm.08,170.86h0a211.87,211.87,0,0,0-48.76-26.05V197.65H389.14v13.14a213,213,0,0,0-114.72,91.83A214,214,0,0,0,216.09,239.54Zm88.22,157.35a210,210,0,0,0-15.74-66.4c.38-.78.77-1.56,1.17-2.35h0A186.11,186.11,0,0,1,456.17,225.76c1.39,0,2.79,0,4.2.05A185.19,185.19,0,0,1,304.31,396.89Z"></path></svg>